<!DOCTYPE svg PUBLIC "-//W3C//DTD SVG 1.1//EN" "http://www.w3.org/Graphics/SVG/1.1/DTD/svg11.dtd">
<!-- Uploaded to: SVG Repo, www.svgrepo.com, Transformed by: SVG Repo Mixer Tools -->
<svg fill="#000000" height="64px" width="64px" version="1.1" id="Layer_1" xmlns="http://www.w3.org/2000/svg" xmlns:xlink="http://www.w3.org/1999/xlink" viewBox="0 0 512 512" xml:space="preserve">
<g id="SVGRepo_bgCarrier" stroke-width="0"/>
<g id="SVGRepo_tracerCarrier" stroke-linecap="round" stroke-linejoin="round"/>
<g id="SVGRepo_iconCarrier"> <g> <g> <path d="M403.703,306.658h-54.081c-5.191,7.778-10.747,15.525-16.672,23.217c-33.188,43.091-66.071,69.535-67.455,70.64 L256,408.096l-9.496-7.581c-1.384-1.105-34.267-27.549-67.455-70.64c-5.925-7.692-11.482-15.439-16.672-23.217h-54.081L0,471.348 h512L403.703,306.658z"/> </g> </g> <g> <g> <path d="M255.999,40.652c-63.172,0-114.564,51.393-114.564,114.565c0,101.037,85.548,187.024,114.57,213.282 c11.713-10.582,32.613-30.85,53.272-57.773c27.96-36.434,61.288-92.989,61.288-155.509 C370.565,92.045,319.171,40.652,255.999,40.652z M256,213.648c-32.218,0-58.43-26.211-58.43-58.43 c0-32.219,26.211-58.431,58.43-58.431s58.43,26.211,58.43,58.431C314.43,187.437,288.218,213.648,256,213.648z"/> </g> </g> </g>
</svg>